<?xml version="1.0" encoding="UTF-8"?>
<svg version="1.0" xmlns="http://www.w3.org/2000/svg"
 width="2400" height="884" viewBox="0 0 2400.000000 884.000000"
 preserveAspectRatio="xMidYMid meet">

<g transform="translate(0.000000,884.000000) scale(0.100000,-0.100000)"
fill="#ff4d00" stroke="none">
<path d="M10938 8823 c-13 -12 -41 -17 -120 -20 -56 -3 -123 -9 -148 -14 -25
-5 -88 -14 -140 -19 -52 -6 -114 -17 -136 -25 -23 -9 -77 -22 -120 -30 -131
-23 -186 -35 -255 -56 -36 -10 -76 -19 -90 -19 -13 0 -37 -9 -54 -20 -16 -11
-41 -20 -55 -20 -14 0 -42 -9 -63 -20 -20 -11 -48 -20 -62 -20 -13 0 -39 -9
-57 -20 -18 -11 -43 -20 -55 -20 -12 0 -78 -27 -146 -60 -69 -33 -133 -60
-142 -60 -22 0 -413 -196 -440 -220 -11 -10 -45 -31 -75 -48 -30 -16 -77 -43
-104 -61 -28 -17 -55 -31 -62 -31 -7 0 -54 -33 -106 -73 -51 -40 -111 -84
-133 -97 -22 -13 -45 -31 -52 -40 -11 -15 -33 -32 -135 -97 -24 -16 -95 -74
-158 -131 -63 -57 -132 -118 -153 -135 -47 -41 -285 -279 -354 -354 -59 -67
-169 -191 -186 -213 -35 -42 -109 -139 -162 -210 -33 -45 -82 -107 -108 -138
-27 -31 -57 -73 -67 -93 -10 -19 -26 -41 -35 -49 -9 -7 -33 -39 -53 -69 -20
-31 -53 -75 -74 -98 -21 -24 -38 -49 -38 -57 0 -8 -20 -38 -45 -67 -25 -29
-45 -56 -45 -60 0 -16 -63 -100 -86 -116 -13 -8 -24 -25 -24 -37 l0 -22 818
-17 c1399 -30 2614 -40 3947 -33 1349 8 1598 11 2180 26 209 5 576 14 815 20
239 6 462 12 495 15 33 3 274 12 535 20 261 8 538 19 615 25 77 5 266 14 420
20 154 6 296 13 315 15 19 3 134 10 255 15 357 16 416 20 495 30 62 8 379 27
470 27 14 0 52 6 85 12 33 6 155 14 272 18 196 6 247 12 231 28 -8 9 -262 39
-553 65 -66 6 -139 16 -162 21 -23 5 -72 9 -110 9 -37 0 -95 5 -128 10 -33 5
-89 11 -125 14 -92 6 -334 25 -470 37 -63 6 -144 12 -180 14 -94 6 -591 43
-750 56 -156 12 -924 57 -1115 64 -71 3 -233 12 -360 20 -126 8 -336 20 -465
26 -129 5 -250 14 -268 19 -19 5 -40 6 -48 3 -8 -3 -139 0 -292 6 -152 6 -439
18 -637 26 -715 29 -1239 47 -1825 60 -124 3 -425 10 -670 15 -371 9 -1986 30
-2267 30 -63 0 -83 3 -83 13 0 25 252 286 506 524 133 124 147 137 254 216 88
66 98 74 168 130 70 55 188 133 232 153 19 9 52 30 72 46 21 16 99 61 175 99
75 38 144 76 153 84 9 8 21 15 27 15 6 0 16 6 22 14 7 8 24 17 38 21 15 3 38
15 51 26 14 10 34 19 45 19 22 0 100 35 136 62 13 10 37 18 53 18 16 0 65 18
109 40 44 22 92 40 107 40 15 0 41 9 57 20 17 11 44 20 60 20 17 0 39 6 50 14
11 7 52 19 90 26 39 8 77 19 86 27 8 7 27 13 41 13 14 0 54 9 88 20 34 11 75
20 91 20 16 0 48 6 71 14 24 8 79 19 123 25 44 6 96 16 115 21 32 9 141 22
435 51 136 14 755 13 885 -1 58 -6 150 -15 205 -21 55 -5 147 -17 205 -26 58
-8 134 -19 170 -23 36 -5 90 -14 120 -20 30 -7 78 -16 105 -21 28 -4 70 -12
95 -18 25 -6 68 -15 95 -20 28 -5 68 -16 90 -24 22 -7 74 -19 115 -26 41 -7
83 -17 92 -22 10 -5 24 -9 31 -9 19 0 145 -38 182 -55 28 -12 89 -30 145 -42
14 -3 45 -14 70 -26 25 -11 54 -20 64 -19 10 0 36 -8 57 -19 21 -10 47 -19 58
-19 11 0 46 -13 76 -30 59 -32 95 -38 95 -17 0 18 -21 37 -40 37 -9 0 -27 11
-39 24 -13 14 -61 43 -107 66 -46 23 -86 45 -89 50 -3 5 -18 11 -34 15 -16 3
-39 17 -51 31 -13 13 -34 24 -47 24 -21 0 -40 7 -83 32 -8 4 -26 13 -40 19
-14 6 -32 15 -40 20 -8 5 -34 18 -56 28 -23 11 -45 24 -48 30 -4 6 -18 11 -31
11 -13 0 -27 5 -31 11 -9 15 -91 49 -119 49 -13 0 -27 5 -30 10 -3 6 -15 10
-25 10 -10 0 -26 7 -35 16 -9 9 -35 21 -58 26 -23 5 -67 21 -97 36 -30 14 -61
25 -69 23 -8 -1 -24 2 -35 8 -57 28 -117 51 -131 51 -15 0 -85 20 -195 57 -47
15 -98 28 -165 42 -22 5 -65 15 -95 24 -30 8 -91 22 -135 31 -44 10 -108 24
-142 32 -34 8 -78 14 -97 14 -20 0 -55 4 -78 10 -103 23 -160 30 -259 34 -59
2 -116 9 -127 15 -12 6 -40 8 -65 5 -28 -4 -47 -2 -51 5 -5 8 -116 11 -379 11
-334 0 -374 -2 -389 -17z"/>
<path d="M14495 7900 c3 -5 15 -10 26 -10 10 0 19 5 19 10 0 6 -12 10 -26 10
-14 0 -23 -4 -19 -10z"/>
<path d="M8165 4749 c-973 -4 -1851 -10 -1950 -13 -99 -3 -466 -8 -815 -11
-349 -3 -788 -13 -975 -21 -187 -8 -572 -19 -855 -24 -283 -5 -573 -14 -645
-20 -71 -5 -290 -15 -485 -20 -195 -6 -400 -15 -455 -20 -55 -5 -208 -12 -340
-15 -132 -4 -323 -13 -425 -21 -102 -8 -300 -19 -440 -24 -230 -9 -537 -33
-599 -46 -17 -4 -21 -8 -13 -16 6 -6 97 -14 213 -19 112 -5 239 -14 283 -19
45 -6 160 -15 256 -20 96 -6 204 -15 240 -21 36 -6 153 -15 260 -20 107 -6
229 -14 270 -19 41 -5 163 -13 270 -19 107 -5 264 -17 349 -26 85 -8 190 -15
235 -15 45 0 158 -7 251 -15 94 -8 278 -20 410 -25 132 -6 290 -15 350 -20 61
-6 234 -15 386 -20 152 -5 348 -16 435 -24 88 -8 283 -17 434 -20 151 -4 320
-11 375 -16 55 -6 249 -14 430 -20 331 -10 478 -16 590 -25 33 -3 272 -10 530
-16 259 -5 544 -14 635 -20 91 -5 401 -14 690 -20 289 -6 548 -12 575 -13 95
-5 892 -26 1345 -36 250 -6 572 -15 715 -20 1189 -41 7682 -34 8675 10 129 5
480 14 780 20 300 6 613 14 695 20 83 5 269 12 415 15 146 4 370 13 499 21
128 8 337 17 465 20 127 3 308 12 401 20 94 8 301 19 460 24 160 6 308 12 330
15 22 3 138 12 259 20 120 7 221 16 224 19 13 14 -15 17 -189 27 -101 5 -218
14 -259 19 -41 5 -158 14 -260 20 -102 6 -239 17 -305 25 -66 8 -165 15 -220
15 -55 0 -158 7 -230 16 -71 8 -222 19 -334 24 -113 6 -241 15 -285 20 -45 6
-179 15 -298 20 -119 6 -248 14 -287 20 -39 5 -188 15 -330 20 -143 6 -304 15
-358 20 -54 5 -225 14 -380 20 -156 6 -349 17 -430 25 -82 8 -219 15 -306 15
-87 0 -294 9 -460 19 -166 11 -409 22 -540 26 -130 3 -286 10 -345 15 -59 5
-309 14 -557 20 -528 12 -744 19 -765 26 -8 3 -235 10 -505 15 -269 5 -537 11
-595 14 -371 16 -699 25 -1070 30 -234 3 -501 10 -595 16 -93 5 -467 13 -830
18 -363 6 -840 14 -1060 20 -575 15 -1910 18 -3940 10z"/>
<path d="M10990 3003 c-370 -3 -1274 -19 -1820 -33 -212 -5 -495 -12 -630 -15
-135 -2 -270 -7 -300 -10 -79 -8 -883 -35 -891 -29 -5 2 -95 -2 -201 -11 -106
-8 -337 -22 -513 -30 -564 -27 -877 -44 -985 -55 -100 -9 -377 -27 -430 -27
-14 0 -68 -5 -120 -12 -52 -6 -186 -14 -297 -18 -191 -6 -237 -12 -220 -29 9
-9 142 -25 447 -54 58 -5 150 -15 205 -21 55 -5 152 -14 215 -19 63 -5 171
-15 240 -24 69 -8 202 -19 295 -26 94 -6 200 -16 237 -21 37 -5 109 -9 160 -9
51 0 131 -4 178 -9 47 -5 153 -14 235 -20 83 -6 242 -18 355 -27 113 -9 300
-20 415 -25 116 -4 280 -13 365 -19 85 -6 207 -13 270 -16 63 -3 169 -9 235
-15 66 -5 172 -11 235 -14 63 -2 126 -5 140 -6 214 -14 717 -37 1060 -49 157
-5 382 -14 500 -20 540 -26 2360 -72 3365 -85 226 -3 619 -8 875 -11 275 -4
470 -10 477 -16 9 -7 -9 -31 -65 -86 -43 -42 -100 -104 -127 -137 -59 -71
-166 -179 -255 -255 -35 -30 -98 -87 -139 -126 -42 -38 -112 -97 -156 -129
-44 -32 -101 -76 -126 -97 -25 -21 -49 -38 -53 -38 -4 0 -29 -18 -55 -40 -26
-22 -51 -40 -55 -40 -4 0 -62 -36 -128 -80 -67 -44 -127 -80 -134 -80 -6 0
-17 -7 -24 -15 -6 -8 -42 -29 -78 -46 -37 -18 -80 -42 -97 -55 -46 -33 -315
-164 -339 -164 -12 0 -57 -18 -100 -40 -43 -22 -91 -40 -105 -40 -14 0 -39 -9
-56 -20 -16 -11 -41 -20 -55 -20 -14 0 -42 -9 -63 -20 -20 -11 -49 -20 -64
-20 -16 0 -41 -9 -58 -20 -16 -11 -40 -20 -53 -20 -13 0 -35 -6 -50 -14 -15
-8 -54 -17 -87 -21 -33 -4 -73 -15 -90 -25 -20 -12 -57 -20 -107 -23 -43 -2
-83 -9 -90 -14 -7 -6 -40 -14 -73 -18 -33 -4 -75 -13 -95 -20 -19 -7 -98 -18
-175 -24 -77 -6 -156 -15 -175 -21 -96 -25 -1007 -32 -1047 -7 -6 4 -93 13
-194 22 -101 9 -209 21 -239 26 -30 6 -80 15 -112 19 -31 4 -62 11 -70 16 -7
5 -33 9 -58 10 -25 0 -67 6 -95 13 -27 7 -66 15 -85 17 -19 3 -44 9 -55 14
-11 5 -33 11 -50 14 -16 3 -50 10 -75 15 -25 6 -69 15 -99 20 -29 6 -72 17
-95 25 -22 7 -61 19 -86 26 -25 7 -56 16 -70 21 -14 4 -41 11 -60 15 -19 3
-44 13 -55 20 -11 8 -32 14 -47 14 -15 0 -42 6 -60 14 -44 19 -133 46 -152 46
-9 0 -45 16 -80 35 -36 19 -78 35 -94 35 -16 0 -35 7 -42 15 -7 8 -18 15 -24
15 -6 0 -24 7 -40 15 -16 9 -31 13 -35 10 -11 -11 28 -60 54 -67 15 -4 35 -13
44 -21 9 -8 29 -17 44 -21 15 -4 37 -17 48 -30 12 -14 33 -27 47 -31 14 -3 39
-17 55 -31 16 -13 35 -24 44 -24 8 0 26 -9 40 -20 14 -11 33 -20 43 -20 10 0
29 -9 43 -20 14 -11 30 -20 37 -20 7 0 23 -9 37 -20 14 -11 34 -20 44 -20 10
0 21 -5 25 -11 8 -14 90 -49 113 -49 10 0 26 -9 36 -20 10 -11 25 -20 34 -20
23 0 81 -22 111 -42 14 -9 59 -26 100 -39 41 -12 84 -28 95 -35 11 -6 38 -17
60 -24 22 -7 63 -23 92 -36 28 -13 61 -24 72 -24 11 0 37 -9 57 -21 20 -11 47
-19 59 -17 12 1 28 -2 36 -8 8 -7 30 -14 49 -17 52 -8 92 -18 115 -26 46 -19
163 -51 183 -51 12 0 45 -9 74 -20 29 -11 71 -20 93 -20 38 0 79 -8 255 -47
41 -9 90 -16 109 -15 19 1 49 -2 65 -8 17 -5 72 -12 121 -14 50 -3 119 -11
155 -17 83 -15 817 -24 845 -10 31 15 65 22 135 27 61 5 302 35 401 50 24 4
49 10 54 14 6 4 36 11 68 15 32 3 84 15 114 26 31 10 76 19 100 19 30 0 54 7
70 20 14 11 39 20 55 20 16 0 46 9 68 20 22 11 50 20 62 20 13 0 40 9 61 20
20 11 49 20 64 20 16 0 42 9 58 20 17 11 42 20 57 20 15 0 42 9 60 20 18 11
42 20 53 20 11 0 34 9 50 20 17 11 36 20 43 20 8 0 72 29 143 65 72 36 135 65
142 65 17 0 98 41 133 66 16 13 47 30 68 39 20 9 58 31 84 49 68 47 188 116
203 116 7 0 25 12 39 26 14 14 63 51 110 82 47 30 90 61 95 68 6 6 55 42 110
79 55 37 123 88 151 114 29 25 75 66 104 91 101 85 275 254 384 369 60 64 129
137 155 163 25 27 65 72 89 100 24 29 68 82 98 118 31 36 59 74 64 85 5 11 34
48 64 83 31 35 56 69 56 76 0 6 27 42 60 79 33 38 60 74 60 82 0 8 27 46 60
86 33 39 60 75 60 80 0 4 18 29 40 54 22 25 40 52 40 60 0 8 17 34 38 59 20
24 48 61 62 82 14 20 37 50 53 66 50 55 43 58 -121 58 -82 0 -432 7 -778 15
-1236 29 -2992 40 -4624 28z"/>
</g>
</svg>
